<svg xmlns="http://www.w3.org/2000/svg" shape-rendering="geometricPrecision" text-rendering="geometricPrecision" image-rendering="optimizeQuality" fill-rule="evenodd" clip-rule="evenodd" viewBox="0 0 512 488.815"><path fill="#1A1A1A" d="M329.651 116.15c18.018 10.26 34.23 24.151 47.936 40.851h29.746c7.84 0 12.405-.401 14.796-1.924 2.422-1.542 4.7-5.479 7.966-12.551l36.045-78.037c3.001-6.507 10.71-9.349 17.216-6.348 6.507 3 9.349 10.709 6.348 17.216l-36.046 78.037c-5.373 11.634-10.072 18.718-17.614 23.52-7.571 4.821-15.96 6.088-28.711 6.088h-11.756c9.536 16.467 16.985 34.705 21.901 54.205h69.312c7.179 0 13.001 5.821 13.001 13 0 7.18-5.822 13.001-13.001 13.001h-64.389a229.382 229.382 0 011.877 29.337c0 8.222-.438 16.325-1.284 24.279h5.44c12.75 0 21.139 1.268 28.71 6.089 7.542 4.802 12.242 11.886 17.615 23.519l36.046 78.038c3 6.507.158 14.215-6.349 17.216-6.506 3.001-14.214.159-17.215-6.348L451.195 357.3c-3.266-7.071-5.544-11.008-7.965-12.55-2.392-1.523-6.957-1.924-14.796-1.924h-9.751c-19.082 84.034-84.841 145.989-163.041 145.989S111.683 426.86 92.602 342.826h-9.035c-7.84 0-12.405.401-14.796 1.924-2.422 1.542-4.7 5.479-7.966 12.55L24.76 435.338c-3.001 6.507-10.71 9.349-17.216 6.348-6.507-3.001-9.349-10.709-6.348-17.216l36.046-78.038c5.373-11.633 10.072-18.717 17.614-23.519 7.571-4.821 15.96-6.089 28.711-6.089h4.724a230.103 230.103 0 01-1.284-24.279c0-9.971.643-19.766 1.876-29.337H25.211c-7.18 0-13.001-5.821-13.001-13.001 0-7.179 5.821-13 13.001-13h68.595c4.917-19.5 12.365-37.739 21.902-54.205h-11.041c-12.75 0-21.139-1.267-28.71-6.088-7.542-4.802-12.242-11.886-17.615-23.52L22.297 75.357c-3.001-6.507-.159-14.216 6.347-17.216 6.507-3.001 14.215-.159 17.216 6.348l36.046 78.037c3.265 7.072 5.543 11.009 7.965 12.551 2.392 1.523 6.956 1.924 14.796 1.924h29.03c13.708-16.699 29.918-30.592 47.937-40.851.32-28.969 14.996-48.817 34.989-59.552-2.762-8.548-7.406-16.191-13.421-22.319-6.624-6.747-14.877-11.64-24.059-13.845-5.564-1.323-9.002-6.908-7.679-12.472 1.324-5.564 6.909-9.002 12.473-7.678 13.121 3.15 24.797 10.022 34.053 19.451 8.034 8.183 14.271 18.31 18.069 29.606 12.778-2.969 26.391-2.967 39.167 0 3.797-11.296 10.035-21.423 18.069-29.606 9.256-9.429 20.932-16.301 34.053-19.451 5.565-1.324 11.149 2.114 12.473 7.678 1.323 5.564-2.115 11.149-7.679 12.472-9.182 2.205-17.435 7.098-24.059 13.845-6.015 6.129-10.659 13.772-13.421 22.321 19.991 10.735 34.668 30.583 34.989 59.55z"/><path fill="#FFC271" d="M255.642 118.398c81.15 0 146.935 77.677 146.935 173.497 0 95.819-65.785 173.497-146.935 173.497-81.149 0-146.934-77.678-146.934-173.497 0-95.82 65.785-173.497 146.934-173.497z"/><path fill="#E19838" d="M255.642 118.398c49.391 0 93.09 28.777 119.728 72.904H135.914c26.639-44.127 70.337-72.904 119.728-72.904z"/><path fill="#858585" d="M205.056 107.909c29.628-13.102 65.211-13.893 101.173 0 0-58.087-101.173-58.085-101.173 0z"/><path fill="#E19838" d="M272.543 464.256a122.492 122.492 0 01-33.801 0V190.07h33.801v274.186z"/></svg>